/* XPM */
static char * close_active_xpm[] = {
"15 15 6 1",
" 	c None",
".	c #000000",
"+	c #350000",
"@	c #FF0F0F",
"#	c #6A0000",
"$	c #960000",
"...............",
".+++.......+++.",
".+@#+.....+#@+.",
".+#@#+...+#@#+.",
"..+#@#+.+#@#+..",
"...+#@###@#+...",
"....+#@$@#+....",
".....#$@$#.....",
"....+#@$@#+....",
"...+#@###@#+...",
"..+#@#+.+#@#+..",
".+#@#+...+#@#+.",
".+@#+.....+#@+.",
".+++.......+++.",
"..............."};
