/* XPM */
static char * hide_active_xpm[] = {
"14 15 6 1",
" 	c None",
".	c #000000",
"+	c #190000",
"@	c #350000",
"#	c #520000",
"$	c #FC0000",
"..............",
"..............",
"..............",
"..............",
"..............",
"..............",
".+@########@+.",
".+$$$$$$$$$$+.",
".+@########@+.",
"..............",
"..............",
"..............",
"..............",
"..............",
".............."};
