/* XPM */
static char * maximize_active_xpm[] = {
"14 15 7 1",
" 	c None",
".	c #000000",
"+	c #1B0000",
"@	c #370000",
"#	c #530000",
"$	c #FF0000",
"%	c #8E0000",
"..............",
"..............",
".+@########@+.",
".@$$$$$$$$$$@.",
".#$%######%$#.",
".#$#......#$#.",
".#$#......#$#.",
".#$#......#$#.",
".#$#......#$#.",
".#$#......#$#.",
".#$#......#$#.",
".#$%######%$#.",
".@$$$$$$$$$$@.",
".+@########@+.",
".............."};
