/* XPM */
static char * menu_active_xpm[] = {
"15 15 10 1",
" 	c None",
".	c #000000",
"+	c #070000",
"@	c #0F0000",
"#	c #130000",
"$	c #1D0000",
"%	c #4E0000",
"&	c #5A0000",
"*	c #970000",
"=	c #FC0000",
"...............",
"...............",
"...............",
"...............",
".....+@#@+.....",
"....+$%&%$+....",
"....@%*=*%@....",
"....#&===&#....",
"....@%*=*%@....",
"....+$%&%$+....",
".....+@#@+.....",
"...............",
"...............",
"...............",
"..............."};
