/* XPM */
static char * bottom_inactive_xpm[] = {
"2 7 3 1",
" 	c None",
".	c #000000",
"+	c #FF0000",
"..",
"++",
"++",
"..",
"  ",
"  ",
"  "};
