/* XPM */
static char * bottom_left_active_xpm[] = {
"7 7 4 1",
" 	c None",
".	c #000000",
"+	c #FD0000",
"@	c #FF0000",
".+@@@@.",
".@@@@@.",
".@@@@@@",
".@@@@@@",
".@@@@@@",
".@@@@@@",
"......."};
