/* XPM */
static char * bottom_right_inactive_xpm[] = {
"43 43 3 1",
" 	c None",
".	c #000000",
"+	c #FF0000",
"                                    .++.   ",
"                                    .++.   ",
"                                    .++.   ",
"                                    .++.   ",
"                                    .++.   ",
"                                    .++.   ",
"                                    .++.   ",
"                                    .++.   ",
"                                    .++.   ",
"                                    .++.   ",
"                                    .++.   ",
"                                    .++.   ",
"                                    .++.   ",
"                                    .++.   ",
"                                    .++.   ",
"                                    .++.   ",
"                                    .++.   ",
"                                    .++.   ",
"                                    .++.   ",
"                                    .++.   ",
"                                    .++.   ",
"                                    .++.   ",
"                                    .++.   ",
"                                    .++.   ",
"                                    .++.   ",
"                                    .++.   ",
"                                    .++.   ",
"                                    .++.   ",
"                                    .++.   ",
"                                    .++.   ",
"                                    .++.   ",
"                                    .++.   ",
"                                    .++.   ",
"                                    .++.   ",
"                                    .++.   ",
"                                    .++.   ",
".....................................++.   ",
"+++++++++++++++++++++++++++++++++++++++.   ",
"+++++++++++++++++++++++++++++++++++++++.   ",
"........................................   ",
"                                           ",
"                                           ",
"                                           "};
