/* XPM */
static char * bottom_right_active_xpm[] = {
"7 7 3 1",
" 	c None",
".	c #000000",
"+	c #FF0000",
".+++++.",
".+++++.",
"++++++.",
"++++++.",
"++++++.",
"++++++.",
"......."};
