/* XPM */
static char * close_active_xpm[] = {
"30 30 3 1",
" 	c None",
".	c #000000",
"+	c #FF0000",
"                              ",
"                              ",
"                              ",
"                              ",
"                              ",
"                              ",
"                              ",
"       ................       ",
"       .+++........+++.       ",
"       ..+++......+++..       ",
"       ...+++....+++...       ",
"       ....+++..+++....       ",
"       .....++++++.....       ",
"       ......++++......       ",
"       ......++++......       ",
"       .....++++++.....       ",
"       ....+++..+++....       ",
"       ...+++....+++...       ",
"       ..+++......+++..       ",
"       .+++........+++.       ",
"       ................       ",
"                              ",
"                              ",
"                              ",
"                              ",
"                              ",
"                              ",
"                              ",
"                              ",
"                              "};
