/* XPM */
static char * maximize_active_xpm[] = {
"30 30 3 1",
" 	c None",
".	c #FF0000",
"+	c #000000",
"                              ",
"                              ",
"                              ",
"                              ",
"                              ",
"                              ",
"                              ",
"      ..................      ",
"      .++++++++++++++++.      ",
"      .+..............+.      ",
"      .+.+++.++++++++.+.      ",
"      .+.+++.++++++++.+.      ",
"      .+.+++.++++++++.+.      ",
"      .+.....++++++++.+.      ",
"      .+.++++++++++++.+.      ",
"      .+.++++++++++++.+.      ",
"      .+.++++++++++++.+.      ",
"      .+.++++++++++++.+.      ",
"       +.++++++++++++.+       ",
"       +.++++++++++++.+       ",
"       +..............+       ",
"       ++++++++++++++++       ",
"                              ",
"                              ",
"                              ",
"                              ",
"                              ",
"                              ",
"                              ",
"                              "};
