/* XPM */
static char * right_inactive_xpm[] = {
"7 2 3 1",
" 	c None",
".	c #000000",
"+	c #FF0000",
".++.   ",
".++.   "};
