/* XPM */
static char * shade_pressed_xpm[] = {
"30 30 4 1",
" 	c None",
".	c #FF0000",
"+	c #000000",
"@	c #FFFFFF",
"                              ",
"                              ",
"                              ",
"                              ",
"                              ",
"                              ",
"                              ",
"      ..................      ",
"      .++++++++++++++++.      ",
"      .++++++++++++++++.      ",
"      .+@@@@@@@@@@@@@@+.      ",
"      .+@@@@@@@@@@@@@@+.      ",
"      .++++++++++++++++.      ",
"      .++++++++++++++++.      ",
"      .++++++++++++++++.      ",
"      .++++++++++++++++.      ",
"      .++++++++++++++++.      ",
"      .++++++++++++++++.      ",
"       ++++++++++++++++       ",
"       ++++++++++++++++       ",
"       ++++++++++++++++       ",
"       ++++++++++++++++       ",
"                              ",
"                              ",
"                              ",
"                              ",
"                              ",
"                              ",
"                              ",
"                              "};
