/* XPM */
static char * top_left_inactive_xpm[] = {
"7 59 5 1",
" 	c None",
".	c #000000",
"+	c #FF0000",
"@	c #FA0000",
"#	c #FC0000",
"   ....",
"   .+++",
"   .+++",
"   .+++",
"   .+++",
"   .+++",
"   .+++",
"   .+++",
"   .+++",
"   .+++",
"   .+++",
"   .+++",
"   .+++",
"   .+++",
"   .+++",
"   .+++",
"   .++.",
"   .++.",
"   .++.",
"   .++.",
"   .++.",
"   .++.",
"   .+@.",
"   .+#.",
"   .++.",
"   .++.",
"   .++.",
"   .++.",
"   .++.",
"   .++.",
"   .++.",
"   .++.",
"   .++.",
"   .++.",
"   .++.",
"   .++.",
"   .++.",
"   .++.",
"   .++.",
"   .++.",
"   .++.",
"   .++.",
"   .++.",
"   .++.",
"   .++.",
"   .++.",
"   .++.",
"   .++.",
"   .++.",
"   .++.",
"   .++.",
"   .++.",
"   .++.",
"   .++.",
"   .++.",
"   .++.",
"   .++.",
"   .++.",
"   .++."};
