/* XPM */
static char * top_right_inactive_xpm[] = {
"7 17 3 1",
" 	c None",
".	c #000000",
"+	c #FF0000",
"       ",
"       ",
"       ",
"       ",
"       ",
"       ",
"       ",
"       ",
"       ",
"....   ",
"+++.   ",
"+++.   ",
"+++.   ",
"+++.   ",
"+++.   ",
"+++.   ",
"+++.   "};
